<?xml version="1.0" standalone="no"?><!DOCTYPE svg PUBLIC "-//W3C//DTD SVG 1.1//EN" "http://www.w3.org/Graphics/SVG/1.1/DTD/svg11.dtd"><svg t="1616231277392" class="icon" viewBox="0 0 1086 1024" version="1.1" xmlns="http://www.w3.org/2000/svg" p-id="625" width="33.9375" height="32" xmlns:xlink="http://www.w3.org/1999/xlink"><defs><style type="text/css"></style></defs><path d="M98.735 723.197c0 0.019 339.86 0.027 339.86 0.027-0.074 0-0.064-514.258-0.064-514.258 0-0.019-339.86-0.027-339.86-0.027 0.074 0 0.064 514.259 0.064 514.259zM62 208.966c0-0.006 0-0.012 0-0.019 0-20.268 16.409-36.702 36.667-36.743h339.928c20.26 0.037 36.67 16.469 36.67 36.735 0 0.009 0 0.020 0 0.029v514.229c0 0.006 0 0.012 0 0.019 0 20.268-16.409 36.702-36.667 36.743h-339.928c-20.26-0.037-36.67-16.469-36.67-36.735 0-0.009 0-0.020 0-0.029v-514.229z" p-id="626"></path><path d="M163.020 62h36.735v146.939h-36.735v-146.939zM346.693 62h36.735v146.939h-36.735v-146.939zM613.066 300.775c1.515-154.625 42.796-192.858 201.995-192.858 162.303 0 202.042 39.738 202.042 202.042h-36.735c0-142.016-23.29-165.307-165.307-165.307s-165.307 23.29-165.307 165.307v450h-36.735v-459.184h0.046zM980.368 309.958h36.735v652.042h-36.735v-652.042zM282.409 759.958h-36.735c0 162.303 39.738 202.042 202.042 202.042s202.042-39.738 202.042-202.042h-36.735c0 142.016-23.29 165.307-165.307 165.307s-165.307-23.29-165.307-165.307z" p-id="627"></path></svg>